<svg version="1.1" id="Layer_1" xmlns="http://www.w3.org/2000/svg" xmlns:xlink="http://www.w3.org/1999/xlink" x="0px" y="0px"
	 width="100%" viewBox="0 0 500 500" enable-background="new 0 0 500 500" xml:space="preserve">
<path fill="#000000" opacity="1.000000" stroke="none" 
	d="
M334.000000,501.000000 
	C222.666687,501.000000 111.833389,501.000000 1.000059,501.000000 
	C1.000040,334.333405 1.000040,167.666794 1.000020,1.000149 
	C167.666565,1.000099 334.333130,1.000099 500.999756,1.000050 
	C500.999847,167.666519 500.999847,334.333038 500.999939,500.999786 
	C445.500000,501.000000 390.000000,501.000000 334.000000,501.000000 
M222.700943,88.081779 
	C185.051239,98.505493 158.056763,121.388016 142.682846,157.377930 
	C132.752533,180.624512 129.661926,204.502350 139.974579,228.512604 
	C146.980774,244.824677 153.535828,261.524445 162.462418,276.781311 
	C189.001801,322.141113 216.551788,366.911041 243.862167,411.817017 
	C248.978989,420.230499 253.044113,419.819031 258.643860,410.758301 
	C280.072113,376.086182 301.919098,341.659668 322.645721,306.571991 
	C335.138763,285.422852 346.010651,263.304596 357.320618,241.471390 
	C368.192627,220.483658 370.030823,198.085083 364.715210,175.461716 
	C350.679871,115.726601 291.952118,72.970978 222.700943,88.081779 
z"/>
<path fill="#31B791" opacity="1.000000" stroke="none" 
	d="
M223.110458,88.017288 
	C291.952118,72.970978 350.679871,115.726601 364.715210,175.461716 
	C370.030823,198.085083 368.192627,220.483658 357.320618,241.471390 
	C346.010651,263.304596 335.138763,285.422852 322.645721,306.571991 
	C301.919098,341.659668 280.072113,376.086182 258.643860,410.758301 
	C253.044113,419.819031 248.978989,420.230499 243.862167,411.817017 
	C216.551788,366.911041 189.001801,322.141113 162.462418,276.781311 
	C153.535828,261.524445 146.980774,244.824677 139.974579,228.512604 
	C129.661926,204.502350 132.752533,180.624512 142.682846,157.377930 
	C158.056763,121.388016 185.051239,98.505493 223.110458,88.017288 
M218.321045,170.851715 
	C210.663086,179.681915 208.349243,190.092682 209.058746,201.486496 
	C210.233002,220.344315 226.415009,237.438293 244.550842,239.559021 
	C276.414642,243.285049 296.111420,217.278549 292.703491,192.253189 
	C290.232574,174.108887 279.641632,161.895325 261.919952,156.825821 
	C244.821350,151.934586 230.600403,157.604385 218.321045,170.851715 
z"/>
<path fill="#010201" opacity="1.000000" stroke="none" 
	d="
M218.553894,170.580368 
	C230.600403,157.604385 244.821350,151.934586 261.919952,156.825821 
	C279.641632,161.895325 290.232574,174.108887 292.703491,192.253189 
	C296.111420,217.278549 276.414642,243.285049 244.550842,239.559021 
	C226.415009,237.438293 210.233002,220.344315 209.058746,201.486496 
	C208.349243,190.092682 210.663086,179.681915 218.553894,170.580368 
z"/>
</svg>